<svg width="143" height="142" viewBox="0 0 143 142" fill="none" xmlns="http://www.w3.org/2000/svg">
<path d="M94.3126 13.3991C94.3126 13.3991 72.468 5.68001 51.0257 17.9801C29.5834 30.2801 18.761 54.7325 9.47034 74.3115C0.179716 93.8904 5.52532 113.807 21.8959 122.875C38.2664 131.944 49.3969 118.57 72.3596 117.92C95.3224 117.269 101.498 120.535 120.567 107.619C139.636 94.7027 143.053 64.2124 128.024 41.6429C112.994 19.0735 94.3126 13.3991 94.3126 13.3991Z" fill="#1D8D86"/>
<path opacity="0.8" d="M94.3126 13.3991C94.3126 13.3991 72.468 5.68001 51.0257 17.9801C29.5834 30.2801 18.761 54.7325 9.47034 74.3115C0.179716 93.8904 5.52532 113.807 21.8959 122.875C38.2664 131.944 49.3969 118.57 72.3596 117.92C95.3224 117.269 101.498 120.535 120.567 107.619C139.636 94.7027 143.053 64.2124 128.024 41.6429C112.994 19.0735 94.3126 13.3991 94.3126 13.3991Z" fill="white"/>
<path d="M116.097 115.136C115.539 113.967 115.414 112.64 115.744 111.388C116.288 109.249 116.488 109.607 115.918 108.377C115.347 107.147 114.859 106.895 115.196 105.838C115.532 104.782 116.117 103.132 115.906 102.132C115.695 101.132 115.239 100.712 115.444 99.6414C115.649 98.5707 116.3 98.0425 115.977 96.8639C115.655 95.6853 115.122 95.7279 115.327 94.6572C115.532 93.5865 115.823 93.4899 115.741 92.5158C115.672 92.0272 115.723 91.5294 115.889 91.0646C115.889 91.0646 116.26 92.5925 116.502 93.4388C116.725 94.0653 116.781 94.7384 116.665 95.3927C116.545 96.009 117.951 97.0769 117.994 97.5653C118.037 98.0538 118.334 98.5906 117.866 99.6243C117.398 100.658 117.281 101.274 117.552 101.964C117.823 102.655 118.123 102.552 117.837 103.952C117.552 105.353 116.765 105.35 117.364 106.423C117.963 107.497 118.322 107.727 118.046 108.477C117.769 109.226 117.33 110.101 117.501 110.612C117.598 110.868 117.718 111.114 117.86 111.348C118.201 111.951 118.315 112.656 118.182 113.336L118.103 113.759L118.365 115.889L117.09 116.928C117.09 116.928 116.514 116.497 116.097 115.136Z" fill="#1D8D86"/>
<path d="M114.631 115.321C114.263 114.912 113.98 114.434 113.798 113.916C113.617 113.397 113.541 112.847 113.576 112.299C113.707 110.459 113.972 110.72 113.179 109.803C112.386 108.886 111.861 108.752 111.992 107.832C112.124 106.912 112.389 105.466 111.992 104.677C111.596 103.887 111.068 103.626 111.068 102.709C111.068 101.791 111.596 101.263 111.068 100.343C110.541 99.4227 110.013 99.5533 110.013 98.6388C110.013 97.7244 110.275 96.9348 110.013 96.1425C109.75 95.3501 109.922 95.5177 109.922 95.5177C109.922 95.5177 110.541 96.8014 110.937 97.4574C111.334 98.1134 111.465 98.5082 111.465 99.0336C111.465 99.559 113.048 100.218 113.176 100.61C113.305 101.002 113.704 101.399 113.442 102.314C113.179 103.228 113.176 103.759 113.573 104.285C113.969 104.81 114.232 104.677 114.232 105.861C114.232 107.045 113.442 107.173 114.232 107.963C115.022 108.752 115.421 108.883 115.287 109.539C115.153 110.195 114.893 110.984 115.156 111.379C115.255 111.517 115.366 111.646 115.487 111.765C116.035 112.328 116.342 113.08 116.343 113.864L117.004 115.568L115.949 116.619C115.949 116.619 115.29 116.372 114.631 115.321Z" fill="#1D8D86"/>
<path d="M122.153 115.321C122.522 114.912 122.805 114.435 122.986 113.916C123.167 113.397 123.243 112.847 123.209 112.299C123.077 110.459 122.812 110.72 123.605 109.803C124.398 108.886 124.923 108.752 124.792 107.832C124.66 106.912 124.395 105.466 124.792 104.677C125.188 103.887 125.716 103.626 125.716 102.709C125.716 101.791 125.188 101.263 125.716 100.343C126.244 99.4227 126.771 99.5534 126.771 98.6389C126.771 97.7244 126.509 96.9349 126.771 96.1425C127.034 95.3502 126.72 95.8074 126.72 95.8074C126.72 95.8074 126.244 96.8014 125.847 97.4574C125.451 98.1135 125.319 98.5082 125.319 99.0336C125.319 99.559 123.736 100.218 123.608 100.61C123.48 101.002 123.08 101.399 123.343 102.314C123.605 103.228 123.608 103.759 123.211 104.285C122.815 104.81 122.552 104.677 122.552 105.861C122.552 107.045 123.343 107.173 122.552 107.963C121.762 108.752 121.363 108.883 121.497 109.539C121.631 110.195 121.891 110.984 121.628 111.379C121.53 111.514 121.421 111.641 121.303 111.76C120.753 112.328 120.446 113.086 120.447 113.875L119.786 115.579L120.841 116.63C120.841 116.63 121.494 116.372 122.153 115.321Z" fill="#1D8D86"/>
<path d="M119.828 115.65C120.069 115.275 120.232 114.856 120.307 114.417C120.383 113.978 120.369 113.528 120.268 113.094C119.92 111.646 119.746 111.89 120.253 111.055C120.761 110.22 121.166 110.044 120.938 109.331C120.71 108.619 120.31 107.5 120.521 106.821C120.733 106.142 121.12 105.861 120.998 105.117C120.875 104.373 120.387 104.038 120.684 103.234C120.981 102.43 121.423 102.47 121.3 101.737C121.178 101.005 120.864 100.411 120.969 99.7493C121.075 99.0876 120.847 99.258 120.847 99.258C120.739 99.8202 120.592 100.374 120.407 100.917C120.205 101.327 120.131 101.788 120.196 102.24C120.265 102.66 119.092 103.39 119.038 103.72C118.984 104.049 118.722 104.418 119.055 105.114C119.389 105.81 119.455 106.23 119.209 106.702C118.964 107.173 118.736 107.102 118.893 108.045C119.05 108.988 119.697 108.985 119.178 109.718C118.659 110.45 118.354 110.604 118.548 111.112C118.741 111.62 119.052 112.208 118.896 112.558C118.664 112.945 118.4 113.312 118.105 113.654L118.279 114.702L117.98 116.147L118.958 116.846C118.958 116.846 119.44 116.573 119.828 115.65Z" fill="#1D8D86"/>
<path d="M123.696 114.58L123.388 122.285H122.53V128.226H113.818V122.285H113.014L112.706 114.58H123.696Z" fill="#263238" stroke="#263238" stroke-miterlimit="10"/>
<path d="M113.014 122.285H112.631V136.604H113.818V128.226" stroke="#263238" stroke-miterlimit="10"/>
<path d="M123.388 122.285H123.716V136.604H122.527V128.226" stroke="#263238" stroke-miterlimit="10"/>
<path d="M101.86 24.14C102.25 22.0707 102.017 19.933 101.192 17.9947C100.367 16.0563 98.9849 14.4037 97.2201 13.2438C95.4554 12.0839 93.3861 11.4683 91.2715 11.4742C89.1569 11.4801 87.091 12.1073 85.3329 13.277C84.0561 10.1869 81.7415 7.63384 78.7844 6.05372C75.8273 4.47359 72.4109 3.96439 69.1187 4.61305C65.8264 5.2617 62.8624 7.028 60.7327 9.61036C58.6029 12.1927 57.4395 15.431 57.441 18.7724C57.441 18.9513 57.441 19.1246 57.441 19.3007C55.3583 19.8897 53.5425 21.1741 52.2984 22.9383C51.0543 24.7025 50.4576 26.8391 50.6085 28.9895C50.7593 31.1398 51.6486 33.1731 53.1269 34.748C54.6053 36.3228 56.5828 37.3435 58.7275 37.6385V37.7379H101.401C103.142 37.6883 104.799 36.9797 106.034 35.7564C107.269 34.5331 107.989 32.8871 108.047 31.1538C108.106 29.4204 107.498 27.7301 106.349 26.427C105.199 25.1238 103.594 24.306 101.86 24.14Z" stroke="#263238" stroke-linecap="round" stroke-linejoin="round"/>
<path d="M36.9457 38.1469C36.996 37.881 37.0218 37.611 37.0227 37.3404C37.0208 36.5476 36.8034 35.7701 36.3934 35.0905C35.9835 34.4108 35.3963 33.8544 34.6944 33.4802C33.9924 33.106 33.2017 32.928 32.4063 32.9651C31.6109 33.0022 30.8405 33.253 30.1767 33.691C29.6515 32.4258 28.7021 31.381 27.4901 30.7345C26.278 30.088 24.8784 29.8798 23.5295 30.1454C22.1806 30.411 20.9659 31.1339 20.0923 32.191C19.2187 33.2482 18.7401 34.5741 18.7381 35.9431C18.7381 36.0169 18.7381 36.0879 18.7381 36.1589C17.8836 36.4 17.1384 36.9266 16.6277 37.6502C16.1171 38.3738 15.8722 39.2503 15.9341 40.1325C15.996 41.0147 16.3609 41.8488 16.9677 42.4946C17.5744 43.1405 18.3859 43.5588 19.2659 43.6792V43.736H36.7603C37.4829 43.7293 38.1749 43.4451 38.6921 42.9428C39.2094 42.4404 39.5118 41.7587 39.5365 41.0397C39.5611 40.3207 39.306 39.62 38.8244 39.0837C38.3428 38.5474 37.6718 38.2169 36.9514 38.1611L36.9457 38.1469Z" stroke="#263238" stroke-linecap="round" stroke-linejoin="round"/>
<path d="M116.574 9.05678C116.609 8.87999 116.627 8.70025 116.628 8.52002C116.627 7.99126 116.483 7.47255 116.209 7.01917C115.936 6.56579 115.544 6.19473 115.076 5.94552C114.607 5.69632 114.08 5.57831 113.549 5.60407C113.019 5.62984 112.506 5.7984 112.064 6.09182C111.714 5.25011 111.083 4.55501 110.277 4.12496C109.47 3.69491 108.539 3.55653 107.642 3.7334C106.745 3.91026 105.937 4.39143 105.356 5.0949C104.775 5.79838 104.457 6.68063 104.456 7.59134C104.456 7.63962 104.456 7.6879 104.456 7.73618C103.883 7.89183 103.382 8.24038 103.039 8.72246C102.695 9.20453 102.53 9.79033 102.571 10.3801C102.612 10.9698 102.858 11.5271 103.265 11.9569C103.673 12.3867 104.218 12.6626 104.807 12.7374V12.78H116.445C116.926 12.7751 117.386 12.5858 117.73 12.2514C118.074 11.9171 118.274 11.4635 118.291 10.9853C118.307 10.5071 118.137 10.0411 117.817 9.68444C117.496 9.32781 117.05 9.10805 116.571 9.07098L116.574 9.05678Z" stroke="#263238" stroke-linecap="round" stroke-linejoin="round"/>
<path d="M98.4373 50.6713H83.5786L82.9596 51.8073C82.6256 52.4061 82.1369 52.905 81.5441 53.2524C80.9512 53.5998 80.2758 53.783 79.5879 53.783C78.9 53.783 78.2246 53.5998 77.6318 53.2524C77.0389 52.905 76.5502 52.4061 76.2162 51.8073L75.5972 50.6713H60.7271C60.3551 50.6664 59.9858 50.7346 59.6403 50.8718C59.2947 51.009 58.9797 51.2127 58.7133 51.4711C58.4468 51.7296 58.2341 52.0378 58.0872 52.3781C57.9404 52.7184 57.8623 53.0842 57.8575 53.4545V129.663C57.8619 130.034 57.9397 130.4 58.0864 130.74C58.2331 131.081 58.4458 131.39 58.7123 131.648C58.9788 131.907 59.2939 132.111 59.6396 132.248C59.9854 132.386 60.3549 132.454 60.7271 132.449H98.4373C98.8095 132.454 99.1791 132.386 99.5248 132.248C99.8705 132.111 100.186 131.907 100.452 131.648C100.719 131.39 100.931 131.081 101.078 130.74C101.225 130.4 101.302 130.034 101.307 129.663V53.4545C101.302 53.0842 101.224 52.7184 101.077 52.3781C100.93 52.0378 100.718 51.7296 100.451 51.4711C100.185 51.2127 99.8697 51.009 99.5241 50.8718C99.1786 50.7346 98.8093 50.6664 98.4373 50.6713Z" fill="white"/>
<path d="M100.183 55.2721H59.2809V131.111H100.183V55.2721Z" fill="#1D8D86"/>
<path d="M75.2236 88.608C75.2236 88.8239 75.3091 88.9545 75.5088 88.9545C75.7085 88.9545 75.7941 88.8239 75.7941 88.608V86.7876H76.0451V88.608C76.0451 88.9687 75.8768 89.2101 75.506 89.2101C75.1351 89.2101 74.9725 88.9687 74.9725 88.608V86.799H75.2378L75.2236 88.608Z" fill="#263238"/>
<path d="M76.8181 86.7961C77.1947 86.7961 77.3544 87.0176 77.3544 87.3783V87.6623C77.3544 88.04 77.1776 88.2303 76.7982 88.2303H76.5614V89.176H76.2933V86.7933L76.8181 86.7961ZM76.7982 88.0003C76.995 88.0003 77.0834 87.9094 77.0834 87.6822V87.3641C77.0834 87.1454 77.0036 87.0375 76.7982 87.0375H76.5414V88.0003H76.7982Z" fill="#263238"/>
<path d="M77.5883 89.176V86.7933H77.8565V88.9346H78.5411V89.176H77.5883Z" fill="#263238"/>
<path d="M78.7065 87.3698C78.7065 87.0063 78.889 86.7706 79.2542 86.7706C79.6193 86.7706 79.8047 87.0063 79.8047 87.3698V88.608C79.8047 88.9687 79.625 89.2073 79.2542 89.2073C78.8833 89.2073 78.7065 88.9687 78.7065 88.608V87.3698ZM78.9718 88.6166C78.9718 88.8352 79.063 88.963 79.257 88.963C79.451 88.963 79.5423 88.8352 79.5423 88.6166V87.3585C79.5423 87.1426 79.4538 87.012 79.257 87.012C79.0602 87.012 78.9718 87.1426 78.9718 87.3585V88.6166Z" fill="#263238"/>
<path d="M80.3267 88.6989L80.2326 89.1788H79.9873L80.4465 86.7961H80.8316L81.2966 89.176H81.0113L80.92 88.696L80.3267 88.6989ZM80.361 88.4717H80.8944L80.6234 87.0943L80.361 88.4717Z" fill="#263238"/>
<path d="M82.061 86.7961C82.4347 86.7961 82.6059 87.0204 82.6059 87.3868V88.591C82.6059 88.9545 82.4347 89.1788 82.061 89.1788H81.4905V86.7961H82.061ZM82.061 88.9374C82.2522 88.9374 82.3463 88.8182 82.3463 88.5995V87.3754C82.3463 87.1568 82.2522 87.0375 82.061 87.0375H81.7758V88.9374H82.061Z" fill="#263238"/>
<path d="M83.1222 86.7961V89.176H82.8569V86.7933L83.1222 86.7961Z" fill="#263238"/>
<path d="M83.6328 89.176H83.3932V86.7933H83.7326L84.286 88.5172V86.7933H84.5227V89.176H84.2375L83.6242 87.2477L83.6328 89.176Z" fill="#263238"/>
<path d="M85.8606 87.3698V87.5742H85.6067V87.3584C85.6067 87.1426 85.5211 87.0119 85.3215 87.0119C85.1218 87.0119 85.0362 87.1426 85.0362 87.3584V88.608C85.0362 88.8239 85.1246 88.9545 85.3215 88.9545C85.5183 88.9545 85.6067 88.8239 85.6067 88.608V88.1309H85.3614V87.8952H85.8606V88.608C85.8606 88.9687 85.6894 89.2072 85.3186 89.2072C84.9478 89.2072 84.7823 88.9687 84.7823 88.608V87.3726C84.7823 87.0119 84.9535 86.7734 85.3186 86.7734C85.6837 86.7734 85.8606 87.0091 85.8606 87.3698Z" fill="#263238"/>
<path d="M81.9184 90.2012H69.6982V92.246H81.9184V90.2012Z" fill="white" stroke="#263238" stroke-linecap="round" stroke-linejoin="round"/>
<path d="M90.8182 90.2012H69.6982V92.246H90.8182V90.2012Z" stroke="#263238" stroke-miterlimit="10"/>
<path d="M98.3204 51.7647H95.3224V53.4005H98.3204V51.7647Z" stroke="#263238" stroke-width="0.821067" stroke-linecap="round" stroke-linejoin="round"/>
<path d="M97.6586 51.7647H95.3224V53.4005H97.6586V51.7647Z" fill="#263238" stroke="#263238" stroke-width="0.725073" stroke-linecap="round" stroke-linejoin="round"/>
<path d="M98.7339 52.2219H98.3118V52.9433H98.7339V52.2219Z" fill="#263238" stroke="#263238" stroke-width="0.725073" stroke-linecap="round" stroke-linejoin="round"/>
<path d="M60.8811 52.2731H60.3306V53.2103H60.8811V52.2731Z" fill="#263238" stroke="#263238" stroke-width="0.883086" stroke-linecap="round" stroke-linejoin="round"/>
<path d="M61.7455 51.9436H61.1949V53.2102H61.7455V51.9436Z" fill="#263238" stroke="#263238" stroke-width="0.883086" stroke-linecap="round" stroke-linejoin="round"/>
<path d="M62.6098 51.5546H62.0592V53.2103H62.6098V51.5546Z" fill="#263238" stroke="#263238" stroke-width="0.883086" stroke-linecap="round" stroke-linejoin="round"/>
<path d="M59.1868 53.96H99.972" stroke="#263238" stroke-linecap="round" stroke-linejoin="round"/>
<path d="M103.423 76.8618C103.504 76.8618 103.581 76.8302 103.638 76.7738C103.695 76.7174 103.728 76.6408 103.729 76.5607V68.444C103.728 68.3639 103.695 68.2874 103.638 68.231C103.581 68.1746 103.504 68.143 103.423 68.143H102.633V52.611C102.633 51.5761 102.22 50.5836 101.485 49.8518C100.75 49.12 99.7535 48.7089 98.714 48.7089H60.4504C59.4109 48.7089 58.414 49.12 57.679 49.8518C56.944 50.5836 56.5311 51.5761 56.5311 52.611V132.699C56.5307 133.212 56.6318 133.719 56.8286 134.193C57.0254 134.667 57.314 135.097 57.678 135.46C58.042 135.823 58.4742 136.11 58.9499 136.307C59.4256 136.503 59.9355 136.604 60.4504 136.604H98.714C99.7535 136.604 100.75 136.193 101.485 135.461C102.22 134.729 102.633 133.737 102.633 132.702V83.8539H103.423C103.504 83.8539 103.582 83.8218 103.639 83.7649C103.697 83.7079 103.729 83.6306 103.729 83.55V79.929C103.729 79.8892 103.721 79.8498 103.705 79.8131C103.69 79.7764 103.668 79.7431 103.639 79.7151C103.611 79.6871 103.577 79.665 103.54 79.65C103.503 79.6351 103.463 79.6276 103.423 79.6279H102.633V76.8618H103.423ZM101.307 129.663C101.302 130.034 101.225 130.4 101.078 130.74C100.931 131.081 100.719 131.39 100.452 131.648C100.186 131.907 99.8705 132.111 99.5248 132.248C99.1791 132.386 98.8095 132.454 98.4373 132.449H60.7271C60.3549 132.454 59.9854 132.386 59.6396 132.248C59.2939 132.111 58.9788 131.907 58.7123 131.648C58.4458 131.39 58.2331 131.081 58.0864 130.74C57.9397 130.4 57.862 130.034 57.8575 129.663V53.4545C57.8623 53.0842 57.9404 52.7184 58.0872 52.3781C58.2341 52.0378 58.4468 51.7296 58.7133 51.4711C58.9797 51.2127 59.2947 51.009 59.6403 50.8718C59.9858 50.7345 60.3551 50.6664 60.7271 50.6713H75.5915L76.2105 51.8073C76.5445 52.4061 77.0332 52.905 77.6261 53.2524C78.2189 53.5998 78.8943 53.783 79.5822 53.783C80.2701 53.783 80.9455 53.5998 81.5383 53.2524C82.1312 52.905 82.6199 52.4061 82.9539 51.8073L83.5729 50.6713H98.4373C98.8093 50.6664 99.1786 50.7345 99.5241 50.8718C99.8697 51.009 100.185 51.2127 100.451 51.4711C100.718 51.7296 100.93 52.0378 101.077 52.3781C101.224 52.7184 101.302 53.0842 101.307 53.4545V129.663Z" fill="#263238" stroke="#263238" stroke-linecap="round" stroke-linejoin="round"/>
<path d="M74.7679 104.472L63.568 106.101L65.241 117.505L76.4409 115.876L74.7679 104.472Z" fill="#263238" stroke="#263238" stroke-linecap="round" stroke-linejoin="round"/>
<path d="M72.739 108.687L70.534 111.845L68.4146 111.561C68.3108 111.548 68.2053 111.559 68.1064 111.593C68.0075 111.627 67.9177 111.683 67.8441 111.757L64.8376 114.736L65.2455 117.508L76.4473 115.872L75.5915 110.01L73.7403 108.542C73.6667 108.482 73.5813 108.438 73.4895 108.412C73.3978 108.387 73.3018 108.381 73.2075 108.394C73.1133 108.408 73.023 108.441 72.9423 108.491C72.8616 108.542 72.7924 108.608 72.739 108.687Z" fill="white" stroke="#263238" stroke-linecap="round" stroke-linejoin="round"/>
<path d="M68.3861 110.002C68.6742 109.966 68.9453 109.847 69.1646 109.657C69.384 109.468 69.5417 109.218 69.6177 108.939C69.6936 108.66 69.6844 108.365 69.5911 108.091C69.4977 107.817 69.3246 107.578 69.0938 107.402C68.863 107.227 68.5849 107.124 68.2952 107.107C68.0054 107.09 67.717 107.159 67.4669 107.306C67.2167 107.452 67.0162 107.67 66.8908 107.931C66.7654 108.191 66.7209 108.483 66.763 108.769C66.7883 108.956 66.8503 109.136 66.9456 109.3C67.0408 109.463 67.1674 109.606 67.3181 109.72C67.4688 109.835 67.6407 109.918 67.824 109.967C68.0072 110.015 68.1982 110.027 68.3861 110.002Z" fill="white" stroke="#263238" stroke-linecap="round" stroke-linejoin="round"/>
<path d="M92.0506 18.1948L80.8507 19.8235L82.5237 31.2273L93.7236 29.5986L92.0506 18.1948Z" fill="#263238" stroke="#263238" stroke-linecap="round" stroke-linejoin="round"/>
<path d="M90.0167 22.4076L87.8117 25.56L85.6923 25.276C85.5887 25.2623 85.4833 25.2726 85.3843 25.3061C85.2854 25.3396 85.1955 25.3954 85.1218 25.4691L82.1209 28.4454L82.5231 31.24L93.7221 29.6098L92.8663 23.7452L91.0122 22.277C90.9398 22.2167 90.8556 22.172 90.765 22.1457C90.6743 22.1195 90.5792 22.1123 90.4856 22.1246C90.392 22.1369 90.302 22.1684 90.2213 22.2171C90.1406 22.2658 90.0709 22.3307 90.0167 22.4076Z" fill="white" stroke="#263238" stroke-linecap="round" stroke-linejoin="round"/>
<path d="M85.6666 23.7253C85.9545 23.6896 86.2252 23.5692 86.4442 23.3797C86.6631 23.1901 86.8204 22.9399 86.8959 22.6609C86.9715 22.382 86.9618 22.087 86.8682 21.8135C86.7747 21.5401 86.6014 21.3006 86.3705 21.1255C86.1397 20.9505 85.8617 20.848 85.572 20.8309C85.2824 20.8138 84.9942 20.8831 84.7442 21.0298C84.4942 21.1765 84.2938 21.394 84.1685 21.6545C84.0432 21.9151 83.9987 22.2069 84.0407 22.4928C84.0659 22.6801 84.1281 22.8606 84.2235 23.024C84.3189 23.1874 84.4458 23.3304 84.5968 23.4449C84.7478 23.5594 84.9201 23.6431 85.1036 23.6912C85.2872 23.7393 85.4785 23.7509 85.6666 23.7253Z" fill="white" stroke="#263238" stroke-linecap="round" stroke-linejoin="round"/>
<path d="M94.1478 58.69L83.6213 54.6331L79.4541 65.3511L89.9806 69.408L94.1478 58.69Z" fill="#263238" stroke="#263238" stroke-width="0.997246" stroke-linecap="round" stroke-linejoin="round"/>
<path d="M90.3846 61.6649L86.9017 63.332L85.1902 62.0455C85.1063 61.9822 85.0089 61.939 84.9055 61.9193C84.8021 61.8996 84.6955 61.9039 84.5941 61.9319L80.5207 63.048L79.5023 65.658L90.0566 69.7362L92.2103 64.2124L91.3288 62.0256C91.2938 61.9377 91.2408 61.8579 91.1732 61.7914C91.1056 61.7249 91.0249 61.6731 90.9362 61.6392C90.8474 61.6053 90.7526 61.5901 90.6577 61.5945C90.5628 61.5989 90.4698 61.6229 90.3846 61.6649Z" fill="white" stroke="#263238" stroke-linecap="round" stroke-linejoin="round"/>
<path d="M85.9461 60.6738C86.2143 60.7846 86.5095 60.8134 86.7941 60.7564C87.0788 60.6994 87.3399 60.5593 87.5441 60.3539C87.7484 60.1485 87.8865 59.8871 87.9409 59.6032C87.9953 59.3192 87.9634 59.0256 87.8494 58.7598C87.7354 58.494 87.5443 58.268 87.3007 58.1108C87.0571 57.9535 86.772 57.8721 86.4817 57.877C86.1914 57.8818 85.9092 57.9727 85.671 58.138C85.4329 58.3033 85.2496 58.5355 85.1446 58.805C85.002 59.1587 85.0064 59.5542 85.1567 59.9046C85.307 60.2551 85.591 60.5317 85.9461 60.6738Z" fill="white" stroke="#263238" stroke-linecap="round" stroke-linejoin="round"/>
<path d="M75.4066 72.9442L64.2745 70.9061L62.181 82.2407L73.3131 84.2789L75.4066 72.9442Z" fill="#263238" stroke="#263238" stroke-linecap="round" stroke-linejoin="round"/>
<path d="M72.2684 77.9637L66.4949 73.0675L65.1228 80.4941L72.2684 77.9637Z" fill="white" stroke="#263238" stroke-linecap="round" stroke-linejoin="round"/>
<path d="M93.6879 112.626H82.3691V124.151H93.6879V112.626Z" fill="#263238" stroke="#263238" stroke-linecap="round" stroke-linejoin="round"/>
<path d="M91.5114 118.127L84.9421 114.35V121.901L91.5114 118.127Z" fill="white" stroke="#263238" stroke-linecap="round" stroke-linejoin="round"/>
<path d="M76.639 29.5447L66.6479 34.8404L72.0877 45.0133L82.0788 39.7175L76.639 29.5447Z" fill="#263238" stroke="#263238" stroke-linecap="round" stroke-linejoin="round"/>
<path d="M77.3145 35.4205L69.7325 35.162L73.2981 41.8275L77.3145 35.4205Z" fill="white" stroke="#263238" stroke-linecap="round" stroke-linejoin="round"/>
<g opacity="0.2">
<path d="M121.483 70.6535L116.773 64.752L112.064 70.6535H113.907V79.5371H119.64V70.6535H121.483Z" stroke="black" stroke-linecap="round" stroke-linejoin="round"/>
<path d="M86.7278 99.755L82.0211 93.8535L77.3116 99.755H79.1543V108.641H84.8879V99.755H86.7278Z" stroke="black" stroke-linecap="round" stroke-linejoin="round"/>
<path d="M99.9064 80.0056L95.1969 74.1041L90.4902 80.0056H92.3301V88.8892H98.0636V80.0056H99.9064Z" stroke="black" stroke-linecap="round" stroke-linejoin="round"/>
<path d="M52.8114 70.804L48.1019 64.9025L43.3953 70.804H45.238V79.6876H50.9715V70.804H52.8114Z" stroke="black" stroke-linecap="round" stroke-linejoin="round"/>
</g>
<g opacity="0.2">
<path d="M53.1223 39.0813L48.4128 33.1797L43.7033 39.0813H45.5461V47.9648H51.2796V39.0813H53.1223Z" stroke="black" stroke-linecap="round" stroke-linejoin="round"/>
<path d="M117.869 45.0964L113.159 39.1949L108.453 45.0964H110.292V53.9799H116.029V45.0964H117.869Z" stroke="black" stroke-linecap="round" stroke-linejoin="round"/>
<path d="M74.2281 60.6795L69.5186 54.778L64.8119 60.6795H66.6518V69.5658H72.3853V60.6795H74.2281Z" stroke="black" stroke-linecap="round" stroke-linejoin="round"/>
</g>
<path d="M16.3734 126.261C16.2194 126.312 14.8273 131.285 14.4679 131.941C14.1085 132.597 15.0384 133.17 15.4977 133.531C15.9569 133.892 17.3005 135.479 18.7952 135.993C20.2899 136.507 22.3494 136.402 22.0898 135.942C21.8303 135.482 19.8763 134.505 19.4113 133.889C18.9464 133.273 18.3302 130.711 18.3302 130.711L20.1844 127.121L16.3734 126.261Z" fill="white" stroke="#263238" stroke-linecap="round" stroke-linejoin="round"/>
<path d="M20.1758 127.15L20.0674 127.104L16.3734 126.252C16.2019 126.609 16.0681 126.982 15.9741 127.365C17.0052 128.014 18.114 128.531 19.2744 128.905L20.1758 127.15Z" fill="#263238" stroke="#263238" stroke-linecap="round" stroke-linejoin="round"/>
<path d="M19.4113 133.9C19.069 133.446 18.644 131.932 18.4443 131.171C18.1444 131.31 17.8635 131.487 17.6086 131.696C17.3678 131.903 17.16 132.146 16.9924 132.415L14.9785 130.529C14.8369 131.012 14.6664 131.486 14.4679 131.949C14.1057 132.617 15.0384 133.179 15.4977 133.54C15.957 133.9 17.3005 135.488 18.7952 136.002C20.2899 136.516 22.3494 136.411 22.0898 135.951C21.8303 135.491 19.8763 134.517 19.4113 133.9Z" fill="#1D8D86" stroke="#263238" stroke-linecap="round" stroke-linejoin="round"/>
<path d="M36.4608 127.695C36.4608 127.695 39.242 135.647 39.4502 136.107C39.6585 136.567 40.3259 136.675 40.788 136.567C41.2502 136.459 43.1585 135.491 44.7559 135.286C46.3533 135.082 47.4344 133.798 47.4857 133.389C47.5371 132.98 43.8288 133.696 42.7449 133.389C41.6609 133.082 40.7481 132.105 40.634 131.748C40.5199 131.39 40.1719 126.068 40.1719 126.068L36.4608 127.695Z" fill="white" stroke="#263238" stroke-linecap="round" stroke-linejoin="round"/>
<path d="M40.1719 126.053L36.4637 127.695L36.8088 128.675C38.0151 128.511 39.1877 128.158 40.2832 127.63C40.2204 126.738 40.1719 126.053 40.1719 126.053Z" fill="#263238" stroke="#263238" stroke-linecap="round" stroke-linejoin="round"/>
<path d="M44.7559 135.286C46.3504 135.082 47.4344 133.798 47.4857 133.389C47.5371 132.98 43.8288 133.696 42.7449 133.389C42.1853 133.211 41.672 132.913 41.2416 132.514C41.2217 132.617 41.2084 132.72 41.2017 132.824C41.1635 133.166 41.1808 133.512 41.253 133.849C41.253 133.849 39.8467 134.568 39.0223 134.948C39.2448 135.573 39.4046 136.008 39.4502 136.107C39.6556 136.567 40.3259 136.675 40.788 136.567C41.2502 136.459 43.1585 135.491 44.7559 135.286Z" fill="#1D8D86" stroke="#263238" stroke-linecap="round" stroke-linejoin="round"/>
<path d="M31.8683 79.236C31.8683 79.236 33.0606 78.8668 34.7978 80.9201C36.535 82.9734 40.2176 93.4644 40.2176 93.4644C40.2176 93.4644 39.4588 95.5205 37.502 95.1968C35.5451 94.873 32.2334 84.2258 32.2334 84.2258C32.2334 84.2258 31.004 78.5089 31.8683 79.236Z" fill="white" stroke="#263238" stroke-linecap="round" stroke-linejoin="round"/>
<path d="M24.9538 75.118C24.9538 75.118 25.7867 77.4638 25.3959 78.526C25.0051 79.5881 22.4036 79.111 21.1171 80.6759C19.8307 82.2407 22.7345 93.3224 22.7345 93.3224C22.7345 93.3224 19.6937 99.1813 19.0548 102.993C18.4158 106.804 18.025 118.766 17.9138 119.303C17.8025 119.839 16.2964 125.75 16.5902 125.698C16.884 125.647 19.2373 126.968 19.9733 127.212C20.7092 127.456 21.0515 127.604 21.0515 127.604C21.0515 127.604 25.1734 121.501 26.4 118.618C27.6266 115.736 28.9501 109.144 28.9501 109.144L35.7676 127.019L40.2803 125.749L39.4959 109.925C39.4959 109.925 39.0052 103.87 37.4848 99.9651C36.4634 97.4247 35.1987 94.9881 33.7081 92.6891C33.7081 92.6891 35.0317 87.9008 34.638 85.6544C34.2444 83.4079 31.8426 79.2104 31.8426 79.2104C31.8426 79.2104 30.6189 79.1593 30.1311 78.7219C29.6433 78.2846 28.7562 75.3509 28.7562 75.3509L24.9538 75.118Z" fill="#263238" stroke="#263238" stroke-linecap="round" stroke-linejoin="round"/>
<path d="M33.4485 82.928L32.0537 79.5399C31.9396 79.3297 31.8683 79.2104 31.8683 79.2104C31.8683 79.2104 30.6445 79.1593 30.1567 78.722C29.669 78.2846 28.7818 75.3509 28.7818 75.3509L24.9566 75.1066C24.9566 75.1066 25.7896 77.4525 25.3988 78.5146C25.1677 79.1451 24.175 79.2388 23.1367 79.5257C23.8633 79.9717 24.421 80.6448 24.7227 81.4398C25.627 83.8169 26.4513 84.8024 26.4513 84.8024L33.4485 82.928Z" fill="white" stroke="#263238" stroke-linecap="round" stroke-linejoin="round"/>
<path d="M29.0243 76.1319C28.876 75.686 28.779 75.3622 28.779 75.3622L24.9538 75.118C24.9538 75.118 25.6241 77.0123 25.4758 78.1767C26.8151 77.809 28.037 77.1049 29.0243 76.1319Z" fill="#263238" stroke="#263238" stroke-linecap="round" stroke-linejoin="round"/>
<path d="M28.9758 109.155L30.3849 102.976" stroke="#858585" stroke-linecap="round" stroke-linejoin="round"/>
<path d="M16.2593 125.028L16.1053 126.164C16.8051 126.846 17.6329 127.383 18.5413 127.746C19.2862 128.047 20.0481 128.304 20.8233 128.516L21.9643 127.027C20.8942 126.706 19.8516 126.299 18.8465 125.812C16.8897 124.889 16.3734 124.676 16.3734 124.676L16.2593 125.028Z" fill="white" stroke="#263238" stroke-linecap="round" stroke-linejoin="round"/>
<path d="M34.9689 126.619L35.5394 128.107C35.5394 128.107 38.4775 127.695 39.5586 127.184C40.6397 126.672 41.2701 126.414 41.2701 126.414L41.0648 124.568L34.9689 126.619Z" fill="white" stroke="#263238" stroke-linecap="round" stroke-linejoin="round"/>
<path d="M34.6637 85.6658C34.2729 83.4193 31.8683 79.2218 31.8683 79.2218C31.4906 79.2007 31.1166 79.1378 30.7529 79.0344C30.7529 79.0656 30.7786 79.0912 30.79 79.1224C31.0353 79.7103 31.9681 82.2975 31.9681 82.2975L26.4257 82.8826C26.0942 82.2824 25.7989 81.6631 25.5414 81.028C25.2071 80.3306 24.6834 79.7404 24.0295 79.324C23.0825 79.5598 21.8759 79.7699 21.1285 80.6901C19.8763 82.2208 22.6347 92.9021 22.7431 93.3224C31.6458 93.5155 33.7338 92.7033 33.7338 92.7033C33.7338 92.7033 35.0574 87.9122 34.6637 85.6658Z" fill="#1D8D86" stroke="#263238" stroke-linecap="round" stroke-linejoin="round"/>
<path d="M44.0417 85.8039L32.7623 84.8648L31.7977 96.3494L43.0771 97.2885L44.0417 85.8039Z" fill="#263238" stroke="#263238" stroke-linecap="round" stroke-linejoin="round"/>
<path d="M41.4156 91.1043L35.1857 86.796L34.5525 94.322L41.4156 91.1043Z" fill="white" stroke="#263238" stroke-linecap="round" stroke-linejoin="round"/>
<path d="M24.021 82.005C24.021 82.005 23.4819 80.0028 21.8645 80.1476C20.2471 80.2925 19.166 81.9056 19.4598 84.2997C19.7537 86.6938 21.5194 96.0204 21.8645 96.7531C22.2097 97.4858 35.8418 98.8519 35.8418 98.8519C35.8418 98.8519 37.4107 99.4369 37.9013 99.4369C38.392 99.4369 40.8936 99.3404 41.1389 99.0478C41.3842 98.7553 41.6781 98.5594 41.4841 98.4117C41.2901 98.264 39.9123 98.4628 39.57 98.3151C39.1276 98.0661 38.7017 97.7891 38.295 97.4858C38.295 97.4858 39.5216 97.3864 39.7212 97.2416C39.9209 97.0968 40.5542 96.5572 40.0635 96.5572C39.5729 96.5572 38.837 96.7048 38.2008 96.7048C37.5647 96.7048 36.2041 97.1905 36.2041 97.1905C34.4349 96.6937 32.6934 96.1041 30.9868 95.424C28.9273 94.5464 26.1804 93.3252 26.1804 93.3252L24.021 82.005Z" fill="white" stroke="#263238" stroke-linecap="round" stroke-linejoin="round"/>
<path d="M29.1213 69.0659C29.1213 69.0659 30.2623 68.5263 29.9086 66.0868C29.5549 63.6472 24.9053 63.545 22.2496 64.573C19.5939 65.6011 17.4916 66.6718 17.9708 69.7475C18.45 72.8232 20.8233 73.556 21.274 73.9479C21.7247 74.3398 21.9643 75.0697 21.6791 75.6093C21.3938 76.1489 20.9916 76.0466 20.9916 76.0466C20.9916 76.0466 20.9431 76.5862 22.3152 76.7311C22.8833 76.777 23.4501 76.6278 23.9213 76.3085C24.3925 75.9892 24.7397 75.519 24.9053 74.976C25.0992 74.1467 24.5601 72.8289 25.3446 71.7526C26.129 70.6762 27.0133 69.5544 26.9648 68.8245C26.9163 68.0946 26.8649 67.7964 26.8649 67.7964L29.1213 69.0659Z" fill="#263238" stroke="#263238" stroke-linecap="round" stroke-linejoin="round"/>
<path d="M26.1176 67.2313C26.1105 68.7167 25.6089 70.158 24.6914 71.3294C23.1795 73.1697 22.4093 73.3373 22.4093 73.3373C22.4093 73.3373 21.99 75.0924 25.5157 76.3477C29.0414 77.6029 29.8829 75.4275 30.0512 73.8371C30.2195 72.2467 29.8002 69.4891 29.0443 68.6541C28.2884 67.8191 26.1176 67.2313 26.1176 67.2313Z" fill="white" stroke="#263238" stroke-linecap="round" stroke-linejoin="round"/>
<path d="M23.4305 73.7548C23.4305 73.7548 22.0043 71.4146 21.2484 72.8346C20.4924 74.2546 21.4167 75.1776 22.4236 75.1776C22.9663 75.1928 23.507 75.1071 24.0181 74.9248" fill="white"/>
<path d="M23.4305 73.7548C23.4305 73.7548 22.0043 71.4146 21.2484 72.8346C20.4924 74.2546 21.4167 75.1776 22.4236 75.1776C22.9663 75.1928 23.507 75.1071 24.0181 74.9248" stroke="#263238" stroke-linecap="round" stroke-linejoin="round"/>
<path d="M27.5039 69.651C27.5039 69.651 27.8976 70.5286 28.4367 70.5286C28.9758 70.5286 29.5149 70.1878 29.2696 70.8126C29.0243 71.4374 28.7305 71.5936 28.7305 71.5936" stroke="#263238" stroke-linecap="round" stroke-linejoin="round"/>
<path d="M26.1804 72.7267C26.594 72.8753 27.0376 72.922 27.4733 72.8626C27.909 72.8033 28.3237 72.6397 28.682 72.3859" stroke="#263238" stroke-linecap="round" stroke-linejoin="round"/>
<path d="M26.5512 70.3723C26.6824 70.6961 26.6653 71.0113 26.5141 71.071C26.3629 71.1306 26.1347 70.9148 26.0035 70.5882C25.8723 70.2616 25.8894 69.952 26.0406 69.8924C26.1918 69.8327 26.42 70.0457 26.5512 70.3723Z" fill="#263238"/>
<path d="M28.5251 69.651C28.6563 69.9747 28.6392 70.29 28.488 70.3496C28.3369 70.4093 28.1087 70.1934 27.9803 69.8668C27.8519 69.5402 27.8633 69.2307 28.0145 69.171C28.1657 69.1114 28.4025 69.3244 28.5251 69.651Z" fill="#263238"/>
<path d="M45.0897 87.2533C44.8571 87.0994 44.576 87.0358 44.2995 87.0744C43.9344 87.1141 43.4438 87.2079 43.4438 87.3925C43.4438 87.6765 44.7987 87.9803 45.2123 87.6765C45.4063 87.5401 45.2751 87.3783 45.0897 87.2533Z" fill="white" stroke="#263238" stroke-linecap="round" stroke-linejoin="round"/>
<path d="M45.2893 88.0031C45.0563 87.8504 44.7759 87.7859 44.4992 87.8213C44.1341 87.8639 43.6434 87.9548 43.6434 88.1422C43.6434 88.4262 44.9984 88.7273 45.412 88.4262C45.606 88.2871 45.4719 88.1252 45.2893 88.0031Z" fill="white" stroke="#263238" stroke-linecap="round" stroke-linejoin="round"/>
<path d="M45.2323 88.7954C44.9992 88.6427 44.7189 88.5782 44.4421 88.6137C44.077 88.6563 43.5864 88.7472 43.5864 88.9346C43.5864 89.2186 44.9413 89.5225 45.3549 89.2186C45.5489 89.0823 45.4177 88.9204 45.2323 88.7954Z" fill="white" stroke="#263238" stroke-linecap="round" stroke-linejoin="round"/>
<path d="M44.7302 89.4969C44.555 89.3827 44.3447 89.3344 44.1369 89.3606C43.8517 89.3918 43.4865 89.4628 43.4865 89.602C43.4865 89.8235 44.5049 90.0422 44.813 89.8235C44.9698 89.7127 44.87 89.5906 44.7302 89.4969Z" fill="white" stroke="#263238" stroke-linecap="round" stroke-linejoin="round"/>
<path d="M6.56076 136.604H136.065" stroke="#263238" stroke-linecap="round" stroke-linejoin="round"/>
</svg>
