<svg width="36" height="36" viewBox="0 0 36 36" fill="none" xmlns="http://www.w3.org/2000/svg">
<path d="M18 2.78262C9.59645 2.78262 2.78259 9.59648 2.78259 18C2.78259 26.4035 9.59645 33.2174 18 33.2174C26.4035 33.2174 33.2174 26.4035 33.2174 18C33.2174 9.59648 26.4035 2.78262 18 2.78262ZM18 26.8315C17.2493 26.8315 16.6413 26.2235 16.6413 25.4728C16.6413 24.7222 17.2493 24.1141 18 24.1141C18.7507 24.1141 19.3587 24.7222 19.3587 25.4728C19.3587 26.2235 18.7507 26.8315 18 26.8315ZM20.1365 19.3757C19.8289 19.4945 19.5642 19.7032 19.377 19.9747C19.1898 20.2461 19.0887 20.5677 19.0869 20.8974V21.6685C19.0869 21.818 18.9647 21.9402 18.8152 21.9402H17.1848C17.0353 21.9402 16.913 21.818 16.913 21.6685V20.9382C16.913 20.1535 17.1406 19.3791 17.589 18.7337C18.0272 18.1019 18.6386 17.6196 19.3587 17.3444C20.5136 16.8995 21.2609 15.9314 21.2609 14.875C21.2609 13.3771 19.7969 12.1576 18 12.1576C16.2031 12.1576 14.7391 13.3771 14.7391 14.875V15.1332C14.7391 15.2826 14.6168 15.4049 14.4674 15.4049H12.8369C12.6875 15.4049 12.5652 15.2826 12.5652 15.1332V14.875C12.5652 13.5401 13.1494 12.2935 14.2092 11.3662C15.2282 10.4728 16.5734 9.98371 18 9.98371C19.4266 9.98371 20.7717 10.4762 21.7907 11.3662C22.8505 12.2935 23.4348 13.5401 23.4348 14.875C23.4348 16.8383 22.1406 18.6046 20.1365 19.3757Z" fill="#1D8D86"/>
</svg>
